# Tiled2Unity generated file. Do not modify by hand.
# Wavefront file for 'test_area_mesh_0003.obj'

# Vertices (Count = 288)
v -608 -80 0
v -624 -80 0
v -624 -64 0
v -608 -64 0
v -656 -96 0
v -672 -96 0
v -672 -80 0
v -656 -80 0
v -640 -96 0
v -656 -96 0
v -656 -80 0
v -640 -80 0
v -608 -96 0
v -624 -96 0
v -624 -80 0
v -608 -80 0
v -688 -112 0
v -704 -112 0
v -704 -96 0
v -688 -96 0
v -672 -112 0
v -688 -112 0
v -688 -96 0
v -672 -96 0
v -656 -112 0
v -672 -112 0
v -672 -96 0
v -656 -96 0
v -640 -112 0
v -656 -112 0
v -656 -96 0
v -640 -96 0
v -624 -112 0
v -640 -112 0
v -640 -96 0
v -624 -96 0
v -736 -128 0
v -752 -128 0
v -752 -112 0
v -736 -112 0
v -672 -128 0
v -688 -128 0
v -688 -112 0
v -672 -112 0
v -656 -128 0
v -672 -128 0
v -672 -112 0
v -656 -112 0
v -640 -128 0
v -656 -128 0
v -656 -112 0
v -640 -112 0
v -624 -128 0
v -640 -128 0
v -640 -112 0
v -624 -112 0
v -672 -144 0
v -688 -144 0
v -688 -128 0
v -672 -128 0
v -656 -144 0
v -672 -144 0
v -672 -128 0
v -656 -128 0
v -640 -144 0
v -656 -144 0
v -656 -128 0
v -640 -128 0
v -624 -144 0
v -640 -144 0
v -640 -128 0
v -624 -128 0
v -672 -160 0
v -688 -160 0
v -688 -144 0
v -672 -144 0
v -656 -160 0
v -672 -160 0
v -672 -144 0
v -656 -144 0
v -640 -160 0
v -656 -160 0
v -656 -144 0
v -640 -144 0
v -624 -160 0
v -640 -160 0
v -640 -144 0
v -624 -144 0
v -672 -176 0
v -688 -176 0
v -688 -160 0
v -672 -160 0
v -656 -176 0
v -672 -176 0
v -672 -160 0
v -656 -160 0
v -640 -176 0
v -656 -176 0
v -656 -160 0
v -640 -160 0
v -624 -176 0
v -640 -176 0
v -640 -160 0
v -624 -160 0
v -368 -176 0
v -384 -176 0
v -384 -160 0
v -368 -160 0
v -800 -192 0
v -816 -192 0
v -816 -176 0
v -800 -176 0
v -640 -192 0
v -656 -192 0
v -656 -176 0
v -640 -176 0
v -464 -192 0
v -480 -192 0
v -480 -176 0
v -464 -176 0
v -368 -192 0
v -384 -192 0
v -384 -176 0
v -368 -176 0
v -800 -208 0
v -816 -208 0
v -816 -192 0
v -800 -192 0
v -464 -208 0
v -480 -208 0
v -480 -192 0
v -464 -192 0
v -304 -256 0
v -320 -256 0
v -320 -240 0
v -304 -240 0
v -688 -272 0
v -704 -272 0
v -704 -256 0
v -688 -256 0
v -608 -272 0
v -624 -272 0
v -624 -256 0
v -608 -256 0
v -496 -272 0
v -512 -272 0
v -512 -256 0
v -496 -256 0
v -480 -272 0
v -496 -272 0
v -496 -256 0
v -480 -256 0
v -304 -272 0
v -320 -272 0
v -320 -256 0
v -304 -256 0
v -608 -288 0
v -624 -288 0
v -624 -272 0
v -608 -272 0
v -496 -288 0
v -512 -288 0
v -512 -272 0
v -496 -272 0
v -784 -320 0
v -800 -320 0
v -800 -304 0
v -784 -304 0
v -784 -336 0
v -800 -336 0
v -800 -320 0
v -784 -320 0
v -656 -336 0
v -672 -336 0
v -672 -320 0
v -656 -320 0
v -896 -352 0
v -912 -352 0
v -912 -336 0
v -896 -336 0
v -656 -352 0
v -672 -352 0
v -672 -336 0
v -656 -336 0
v -720 -368 0
v -736 -368 0
v -736 -352 0
v -720 -352 0
v -544 -384 0
v -560 -384 0
v -560 -368 0
v -544 -368 0
v -544 -400 0
v -560 -400 0
v -560 -384 0
v -544 -384 0
v -576 -432 0
v -592 -432 0
v -592 -416 0
v -576 -416 0
v -640 -448 0
v -656 -448 0
v -656 -432 0
v -640 -432 0
v -576 -448 0
v -592 -448 0
v -592 -432 0
v -576 -432 0
v -640 -464 0
v -656 -464 0
v -656 -448 0
v -640 -448 0
v -720 -480 0
v -736 -480 0
v -736 -464 0
v -720 -464 0
v -608 -480 0
v -624 -480 0
v -624 -464 0
v -608 -464 0
v -800 -496 0
v -816 -496 0
v -816 -480 0
v -800 -480 0
v -624 -496 0
v -640 -496 0
v -640 -480 0
v -624 -480 0
v -608 -496 0
v -624 -496 0
v -624 -480 0
v -608 -480 0
v -448 -496 0
v -464 -496 0
v -464 -480 0
v -448 -480 0
v -624 -512 0
v -640 -512 0
v -640 -496 0
v -624 -496 0
v -608 -512 0
v -624 -512 0
v -624 -496 0
v -608 -496 0
v -496 -512 0
v -512 -512 0
v -512 -496 0
v -496 -496 0
v -384 -512 0
v -400 -512 0
v -400 -496 0
v -384 -496 0
v -368 -512 0
v -384 -512 0
v -384 -496 0
v -368 -496 0
v -496 -528 0
v -512 -528 0
v -512 -512 0
v -496 -512 0
v -384 -528 0
v -400 -528 0
v -400 -512 0
v -384 -512 0
v -368 -528 0
v -384 -528 0
v -384 -512 0
v -368 -512 0
v -800 -544 0
v -816 -544 0
v -816 -528 0
v -800 -528 0
v -800 -560 0
v -816 -560 0
v -816 -544 0
v -800 -544 0
v -384 -592 0
v -400 -592 0
v -400 -576 0
v -384 -576 0
v -560 -624 0
v -576 -624 0
v -576 -608 0
v -560 -608 0
v -560 -640 0
v -576 -640 0
v -576 -624 0
v -560 -624 0

# Texture cooridinates (Count = 60)
vt 0.3161157 0.6463878
vt 0.3326446 0.6463878
vt 0.3326446 0.6768061
vt 0.3161157 0.6768061
vt 0.7024794 0
vt 0.7190083 0
vt 0.7190083 0.03041828
vt 0.7024794 0.03041828
vt 0.3161157 0.6140684
vt 0.3326446 0.6140684
vt 0.3326446 0.6444867
vt 0.3161157 0.6444867
vt 0.2634298 0.6787072
vt 0.2799587 0.6787072
vt 0.2799587 0.7091255
vt 0.2634298 0.7091255
vt 0.3336777 0.1939163
vt 0.3502066 0.1939163
vt 0.3502066 0.2243346
vt 0.3336777 0.2243346
vt 0.3161157 0.2908745
vt 0.3326446 0.2908745
vt 0.3326446 0.3212928
vt 0.3161157 0.3212928
vt 0.3336777 0.2585551
vt 0.3502066 0.2585551
vt 0.3502066 0.2889734
vt 0.3336777 0.2889734
vt 0.3161157 0.2585551
vt 0.3326446 0.2585551
vt 0.3326446 0.2889734
vt 0.3161157 0.2889734
vt 0.2985537 0.2585551
vt 0.3150826 0.2585551
vt 0.3150826 0.2889734
vt 0.2985537 0.2889734
vt 0.3336777 0.2262357
vt 0.3502066 0.2262357
vt 0.3502066 0.256654
vt 0.3336777 0.256654
vt 0.3161157 0.2262357
vt 0.3326446 0.2262357
vt 0.3326446 0.256654
vt 0.3161157 0.256654
vt 0.2985537 0.2262357
vt 0.3150826 0.2262357
vt 0.3150826 0.256654
vt 0.2985537 0.256654
vt 0.01756198 0.5171102
vt 0.03409091 0.5171102
vt 0.03409091 0.5475285
vt 0.01756198 0.5475285
vt 0.03512397 0.9695817
vt 0.05165289 0.9695817
vt 0.05165289 1
vt 0.03512397 1
vt 0.1404959 0.6463878
vt 0.1570248 0.6463878
vt 0.1570248 0.6768061
vt 0.1404959 0.6768061

# Normal
vn 0 0 -1

# Mesh description
g test_area_mesh_0003

# Faces
f 1/1/1 2/2/1 3/3/1 4/4/1
f 5/5/1 6/6/1 7/7/1 8/8/1
f 9/5/1 10/6/1 11/7/1 12/8/1
f 13/9/1 14/10/1 15/11/1 16/12/1
f 17/5/1 18/6/1 19/7/1 20/8/1
f 21/5/1 22/6/1 23/7/1 24/8/1
f 25/5/1 26/6/1 27/7/1 28/8/1
f 29/5/1 30/6/1 31/7/1 32/8/1
f 33/5/1 34/6/1 35/7/1 36/8/1
f 37/13/1 38/14/1 39/15/1 40/16/1
f 41/17/1 42/18/1 43/19/1 44/20/1
f 45/21/1 46/22/1 47/23/1 48/24/1
f 49/21/1 50/22/1 51/23/1 52/24/1
f 53/17/1 54/18/1 55/19/1 56/20/1
f 57/25/1 58/26/1 59/27/1 60/28/1
f 61/29/1 62/30/1 63/31/1 64/32/1
f 65/29/1 66/30/1 67/31/1 68/32/1
f 69/33/1 70/34/1 71/35/1 72/36/1
f 73/25/1 74/26/1 75/27/1 76/28/1
f 77/29/1 78/30/1 79/31/1 80/32/1
f 81/29/1 82/30/1 83/31/1 84/32/1
f 85/33/1 86/34/1 87/35/1 88/36/1
f 89/37/1 90/38/1 91/39/1 92/40/1
f 93/41/1 94/42/1 95/43/1 96/44/1
f 97/41/1 98/42/1 99/43/1 100/44/1
f 101/45/1 102/46/1 103/47/1 104/48/1
f 105/1/1 106/2/1 107/3/1 108/4/1
f 109/1/1 110/2/1 111/3/1 112/4/1
f 113/49/1 114/50/1 115/51/1 116/52/1
f 117/1/1 118/2/1 119/3/1 120/4/1
f 121/9/1 122/10/1 123/11/1 124/12/1
f 125/9/1 126/10/1 127/11/1 128/12/1
f 129/9/1 130/10/1 131/11/1 132/12/1
f 133/1/1 134/2/1 135/3/1 136/4/1
f 137/13/1 138/14/1 139/15/1 140/16/1
f 141/1/1 142/2/1 143/3/1 144/4/1
f 145/13/1 146/14/1 147/15/1 148/16/1
f 149/13/1 150/14/1 151/15/1 152/16/1
f 153/9/1 154/10/1 155/11/1 156/12/1
f 157/9/1 158/10/1 159/11/1 160/12/1
f 161/13/1 162/14/1 163/15/1 164/16/1
f 165/1/1 166/2/1 167/3/1 168/4/1
f 169/9/1 170/10/1 171/11/1 172/12/1
f 173/13/1 174/14/1 175/15/1 176/16/1
f 177/13/1 178/14/1 179/15/1 180/16/1
f 181/13/1 182/14/1 183/15/1 184/16/1
f 185/13/1 186/14/1 187/15/1 188/16/1
f 189/1/1 190/2/1 191/3/1 192/4/1
f 193/9/1 194/10/1 195/11/1 196/12/1
f 197/1/1 198/2/1 199/3/1 200/4/1
f 201/1/1 202/2/1 203/3/1 204/4/1
f 205/9/1 206/10/1 207/11/1 208/12/1
f 209/9/1 210/10/1 211/11/1 212/12/1
f 213/53/1 214/54/1 215/55/1 216/56/1
f 217/57/1 218/58/1 219/59/1 220/60/1
f 221/13/1 222/14/1 223/15/1 224/16/1
f 225/1/1 226/2/1 227/3/1 228/4/1
f 229/1/1 230/2/1 231/3/1 232/4/1
f 233/13/1 234/14/1 235/15/1 236/16/1
f 237/9/1 238/10/1 239/11/1 240/12/1
f 241/9/1 242/10/1 243/11/1 244/12/1
f 245/1/1 246/2/1 247/3/1 248/4/1
f 249/1/1 250/2/1 251/3/1 252/4/1
f 253/1/1 254/2/1 255/3/1 256/4/1
f 257/9/1 258/10/1 259/11/1 260/12/1
f 261/9/1 262/10/1 263/11/1 264/12/1
f 265/9/1 266/10/1 267/11/1 268/12/1
f 269/1/1 270/2/1 271/3/1 272/4/1
f 273/9/1 274/10/1 275/11/1 276/12/1
f 277/13/1 278/14/1 279/15/1 280/16/1
f 281/1/1 282/2/1 283/3/1 284/4/1
f 285/9/1 286/10/1 287/11/1 288/12/1

